<?xml version="1.0" encoding="UTF-8" standalone="no"?>
<svg width="318px" height="200px" viewBox="0 0 318 200" version="1.1" xmlns="http://www.w3.org/2000/svg" xmlns:xlink="http://www.w3.org/1999/xlink">
    <!-- Generator: Sketch 42 (36781) - http://www.bohemiancoding.com/sketch -->
    <title>Empty Contacts</title>
    <desc>Created with Sketch.</desc>
    <defs></defs>
    <g id="Assets" stroke="none" stroke-width="1" fill="none" fill-rule="evenodd">
        <g id="Empty-Contacts">
            <rect id="Rectangle" fill="#F6F6F6" x="0" y="0" width="318" height="200"></rect>
            <path d="M143.5,0.398406375 L143.5,199.601594" id="Line" stroke="#D6D6D6" stroke-linecap="square"></path>
            <rect id="Rectangle" fill="#9B9B9B" x="9.9375" y="19" width="122.5625" height="15" rx="4"></rect>
            <rect id="Rectangle" fill="#BBBBBB" x="166.95" y="29" width="122.5625" height="15" rx="4"></rect>
            <path d="M166.95,18 C166.95,19.6568542 167.836014,21 168.935203,21 L198.089797,21 C199.186194,21 200.075,19.6534829 200.075,18 L200.075,18 C200.075,16.3431458 199.188986,15 198.089797,15 L168.935203,15 C167.838806,15 166.95,16.3465171 166.95,18" id="Rectangle" fill="#9B9B9B"></path>
            <path d="M166.95,65 C166.95,66.6568542 167.836014,68 168.935203,68 L198.089797,68 C199.186194,68 200.075,66.6534829 200.075,65 L200.075,65 C200.075,63.3431458 199.188986,62 198.089797,62 L168.935203,62 C167.838806,62 166.95,63.3465171 166.95,65" id="Rectangle" fill="#9B9B9B"></path>
            <path d="M166.95,109 C166.95,110.656854 167.836014,112 168.935203,112 L198.089797,112 C199.186194,112 200.075,110.653483 200.075,109 L200.075,109 C200.075,107.343146 199.188986,106 198.089797,106 L168.935203,106 C167.838806,106 166.95,107.346517 166.95,109" id="Rectangle" fill="#9B9B9B"></path>
            <path d="M166.95,152 C166.95,153.656854 167.836014,155 168.935203,155 L198.089797,155 C199.186194,155 200.075,153.653483 200.075,152 L200.075,152 C200.075,150.343146 199.188986,149 198.089797,149 L168.935203,149 C167.838806,149 166.95,150.346517 166.95,152" id="Rectangle" fill="#9B9B9B"></path>
            <rect id="Rectangle" fill="#BBBBBB" x="166.95" y="73" width="122.5625" height="15" rx="4"></rect>
            <rect id="Rectangle" fill="#BBBBBB" x="166.95" y="116" width="122.5625" height="15" rx="4"></rect>
            <rect id="Rectangle" fill="#BBBBBB" x="166.95" y="158" width="122.5625" height="15" rx="4"></rect>
            <path d="M0.33125,54.5 L142.990438,54.5" id="Line" stroke="#D6D6D6" stroke-linecap="square"></path>
            <g id="Contact/Boy" transform="translate(72.000000, 69.000000)">
                <circle id="Oval" fill="#32AEDE" cx="25" cy="25" r="25"></circle>
                <circle id="Oval" fill="#EFF0F2" cx="24.6428571" cy="25.3571429" r="19.6428571"></circle>
                <g id="boy" stroke-width="1" transform="translate(15.000000, 13.571429)">
                    <g id="Max" fill-rule="nonzero">
                        <g id="Max_1_">
                            <ellipse id="BG_1_" fill="#8198DE" cx="10" cy="12.8571429" rx="10" ry="10"></ellipse>
                            <path d="M17.8571429,19.0714286 C17.7857143,17.5714286 16.5714286,16.3571429 15,16.3571429 L5,16.3571429 C3.42857143,16.3571429 2.21428571,17.5714286 2.14285714,19.0714286 C4,21.3571429 6.78571429,22.8571429 10,22.8571429 C13.2142857,22.8571429 16,21.3571429 17.8571429,19.0714286 Z" id="Dress" fill="#6056B6"></path>
                            <path d="M7.85714286,14.2857143 L7.85714286,17.8571429 C7.85714286,19.0714286 8.78571429,20 10,20 C11.2142857,20 12.1428571,19.0714286 12.1428571,17.8571429 L12.1428571,14.2857143 L7.85714286,14.2857143 Z" id="Neck_1_" fill="#FCC792"></path>
                            <polygon id="Neck_Shadow_1_" fill="#F9B475" points="7.85714286 13.5714286 12.1428571 17.8571429 12.1428571 13.5714286"></polygon>
                            <path d="M5,2.14285714 L5,10.7142857 C5,13.5 7.21428571,15.7142857 10,15.7142857 C12.7857143,15.7142857 15,13.5 15,10.7142857 L15,2.14285714 L5,2.14285714 Z" id="Face_1_" fill="#FAD3A1"></path>
                            <path d="M11.4285714,2.85714286 L11.4285714,7.85714286 C10.6428571,7.85714286 10,8.5 10,9.28571429 L10,10 L9,10 C9.14285714,10.4285714 9.57142857,10.7142857 10,10.7142857 L10,15.7142857 C12.7857143,15.7142857 15,13.5 15,10.7142857 L15,2.85714286 L11.4285714,2.85714286 Z" id="Face_Depth_1_" fill="#FCC792"></path>
                            <circle id="Right_Eye_1_" fill="#25374B" cx="12.8571429" cy="7.85714286" r="0.714285714"></circle>
                            <path d="M6.07142857,0 C4.85714286,0 3.92857143,0.928571429 3.92857143,2.14285714 L3.92857143,10 L5,10 L5,4.07142857 L5.35714286,4.14285714 L5.35714286,4.14285714 L5.57142857,4.21428571 L5.64285714,4.21428571 L10.3571429,5.5 L10.3571429,5.5 C10.7857143,5.64285714 11.2857143,5.71428571 11.7857143,5.71428571 C13,5.71428571 14.0714286,5.35714286 15,4.71428571 L15,10 L16.0714286,10 L16.0714286,3.78571429 C16.9285714,2.78571429 17.5,1.42857143 17.5,0 L6.07142857,0 Z" id="Hair_1_" fill="#25374B"></path>
                            <circle id="Left_Eye_1_" fill="#25374B" cx="7.14285714" cy="7.85714286" r="0.714285714"></circle>
                            <rect id="Right_Earbrow_1_" fill="#25374B" x="11.7857143" y="6.07142857" width="2.14285714" height="0.714285714"></rect>
                            <rect id="Left_Earbrow_1_" fill="#25374B" x="6.07142857" y="6.07142857" width="2.14285714" height="0.714285714"></rect>
                            <ellipse id="Reflection_x5F_Eye_3_" fill="#E6E6E6" cx="7.14285714" cy="7.5" rx="0.214285714" ry="0.214285714"></ellipse>
                            <circle id="Reflection_x5F_Eye_2_" fill="#E6E6E6" cx="12.8571429" cy="7.5" r="0.214285714"></circle>
                            <ellipse id="Right_Cheek_1_" fill="#FCBD83" cx="12.8571429" cy="9.5" rx="0.571428571" ry="0.571428571"></ellipse>
                            <circle id="Left_Cheek_1_" fill="#FCC792" cx="7.14285714" cy="9.5" r="0.571428571"></circle>
                            <path d="M15,7.85714286 C15.7857143,7.85714286 16.4285714,8.5 16.4285714,9.28571429 C16.4285714,10.0714286 15.7857143,10.7142857 15,10.7142857 L15,7.85714286 Z" id="Right_Ear_1_" fill="#FCC792"></path>
                            <path d="M5,7.85714286 C4.21428571,7.85714286 3.57142857,8.5 3.57142857,9.28571429 C3.57142857,10.0714286 4.21428571,10.7142857 5,10.7142857 L5,7.85714286 Z" id="Left_Ear_1_" fill="#FCC792"></path>
                            <path d="M11.7142857,11.7857143 C11.3571429,12.3571429 10.7142857,12.7142857 10,12.7142857 C9.28571429,12.7142857 8.64285714,12.3571429 8.28571429,11.7857143 L7.85714286,11.7857143 C8.28571429,12.5 9.07142857,13.0714286 10,13.0714286 C10.9285714,13.0714286 11.7142857,12.5714286 12.1428571,11.7857143 L11.7142857,11.7857143 Z" id="Mouth_1_" fill="#F7AC6F"></path>
                        </g>
                    </g>
                </g>
            </g>
            <g id="Contact" transform="translate(15.000000, 68.000000)">
                <circle id="Oval" fill="#32AEDE" cx="25" cy="25" r="25"></circle>
                <circle id="Oval" fill="#EFF0F2" cx="24.6428571" cy="25.3571429" r="19.6428571"></circle>
                <g id="girl" stroke-width="1" transform="translate(14.285714, 13.571429)">
                    <g id="Sofia_1_" fill-rule="nonzero">
                        <g id="Sofia">
                            <ellipse id="BG" fill="#FFCFE3" cx="10" cy="12.8571429" rx="10" ry="10"></ellipse>
                            <path d="M10.3571429,0 L9.64285714,0 C6.07142857,0 3.21428571,2.85714286 3.21428571,6.42857143 L3.21428571,20 L16.7857143,20 L16.7857143,6.42857143 C16.7857143,2.85714286 13.9285714,0 10.3571429,0 Z" id="Hair" fill="#25374B"></path>
                            <rect id="Neck" fill="#FFC2A9" x="7.85714286" y="15.7142857" width="4.28571429" height="3.57142857"></rect>
                            <polygon id="Neck_Shadow" fill="#F9AE91" points="7.85714286 15 12.1428571 19.2857143 12.1428571 15"></polygon>
                            <path d="M5,2.85714286 L5,11.4285714 C5,14.2142857 7.21428571,16.4285714 10,16.4285714 C12.7857143,16.4285714 15,14.2142857 15,11.4285714 L15,2.85714286 L5,2.85714286 Z" id="Face" fill="#FFE3C5"></path>
                            <path d="M11.4285714,3.57142857 L11.4285714,8.57142857 C10.6428571,8.57142857 10,9.21428571 10,10 L10,10.7142857 L9,10.7142857 C9.14285714,11.1428571 9.57142857,11.4285714 10,11.4285714 L10,16.4285714 C12.7857143,16.4285714 15,14.2142857 15,11.4285714 L15,3.57142857 L11.4285714,3.57142857 Z" id="Face_Depth_3_" fill="#F9D6B7"></path>
                            <rect id="Right_Earbrow" fill="#25374B" x="11.7857143" y="6.78571429" width="2.14285714" height="0.714285714"></rect>
                            <rect id="Left_Earbrow" fill="#25374B" x="6.07142857" y="6.78571429" width="2.14285714" height="0.714285714"></rect>
                            <circle id="Right_Cheek" fill="#FFC2A9" cx="12.8571429" cy="10.9285714" r="0.571428571"></circle>
                            <ellipse id="Left_Cheek" fill="#FFC2A9" cx="7.14285714" cy="10.9285714" rx="0.571428571" ry="0.571428571"></ellipse>
                            <path d="M15,9.28571429 L14.2857143,9.28571429 L14.2857143,12.1428571 L15,12.1428571 C15.7857143,12.1428571 16.4285714,11.5 16.4285714,10.7142857 C16.4285714,9.92857143 15.7857143,9.28571429 15,9.28571429 Z" id="Right_Ear" fill="#F9D6B7"></path>
                            <path d="M5,9.28571429 L5.71428571,9.28571429 L5.71428571,12.1428571 L5,12.1428571 C4.21428571,12.1428571 3.57142857,11.5 3.57142857,10.7142857 C3.57142857,9.92857143 4.21428571,9.28571429 5,9.28571429 Z" id="Left_Ear" fill="#FFE3C5"></path>
                            <ellipse id="Reflection_x5F_Eye_6_" fill="#E6E6E6" cx="7.14285714" cy="8.92857143" rx="0.214285714" ry="0.214285714"></ellipse>
                            <path d="M11.7142857,12.5 C11.3571429,13.0714286 10.7142857,13.4285714 10,13.4285714 C9.28571429,13.4285714 8.64285714,13.0714286 8.28571429,12.5 L7.85714286,12.5 C8.28571429,13.2142857 9.07142857,13.7857143 10,13.7857143 C10.9285714,13.7857143 11.7142857,13.2857143 12.1428571,12.5 L11.7142857,12.5 Z" id="Mouth_1_" fill="#FFB9A1"></path>
                            <path d="M6.42857143,9.07142857 L6.42857143,9.5 C6.64285714,9.35714286 6.85714286,9.21428571 7.14285714,9.21428571 C7.42857143,9.21428571 7.64285714,9.35714286 7.85714286,9.5 L7.85714286,9.07142857 C7.64285714,8.92857143 7.42857143,8.85714286 7.14285714,8.85714286 C6.85714286,8.85714286 6.64285714,8.92857143 6.42857143,9.07142857 Z" id="Right_Eye_2_" fill="#25374B"></path>
                            <path d="M12.1428571,9.07142857 L12.1428571,9.5 C12.3571429,9.35714286 12.5714286,9.21428571 12.8571429,9.21428571 C13.1428571,9.21428571 13.3571429,9.35714286 13.5714286,9.5 L13.5714286,9.07142857 C13.3571429,8.92857143 13.1428571,8.85714286 12.8571429,8.85714286 C12.5714286,8.85714286 12.3571429,8.92857143 12.1428571,9.07142857 Z" id="Left_Eye" fill="#25374B"></path>
                            <path d="M16.0714286,3.57142857 L16.0714286,3.57142857 C16.0714286,3.57142857 16.0714286,3.5 16,3.5 C15.9285714,3.28571429 15.8571429,3.07142857 15.7142857,2.85714286 L15.6428571,2.78571429 C15.3571429,2.35714286 14.9285714,1.92857143 14.5714286,1.57142857 C14.5,1.5 14.5,1.5 14.4285714,1.42857143 C14.2857143,1.28571429 14.0714286,1.21428571 13.9285714,1.07142857 C13.8571429,1 13.7857143,1 13.7142857,0.928571429 C13.5,0.785714286 13.3571429,0.714285714 13.1428571,0.642857143 C13.0714286,0.642857143 13.0714286,0.571428571 13,0.571428571 C12.7857143,0.5 12.5714286,0.357142857 12.3571429,0.285714286 L12.3571429,0.285714286 C11.7142857,0.142857143 11.0714286,0 10.3571429,0 L9.64285714,0 C8.92857143,0 8.28571429,0.142857143 7.71428571,0.285714286 L7.71428571,0.285714286 C7.5,0.357142857 7.28571429,0.428571429 7.07142857,0.571428571 C7,0.571428571 7,0.642857143 6.92857143,0.642857143 C6.71428571,0.714285714 6.5,0.857142857 6.28571429,0.928571429 C6.21428571,1 6.14285714,1 6.07142857,1.07142857 C5.92857143,1.21428571 5.78571429,1.28571429 5.64285714,1.42857143 C5.57142857,1.5 5.5,1.5 5.42857143,1.57142857 C5.07142857,1.92857143 4.64285714,2.35714286 4.35714286,2.78571429 L4.28571429,2.85714286 C4.14285714,3.07142857 4.07142857,3.28571429 3.92857143,3.5 C3.92857143,3.5 3.92857143,3.57142857 3.85714286,3.57142857 L3.85714286,3.57142857 C3.85714286,3.64285714 3.78571429,3.78571429 3.78571429,3.85714286 C4.14285714,4.92857143 5.21428571,5.71428571 6.42857143,5.71428571 C7.14285714,5.71428571 7.71428571,5.5 8.21428571,5.07142857 C8.71428571,5.5 9.28571429,5.71428571 10,5.71428571 C10.7142857,5.71428571 11.2857143,5.5 11.7857143,5.07142857 C12.2857143,5.5 12.8571429,5.71428571 13.5714286,5.71428571 C14.7857143,5.71428571 15.8571429,4.92857143 16.2142857,3.85714286 C16.2142857,3.78571429 16.1428571,3.64285714 16.0714286,3.57142857 Z" id="Front_hair" fill="#25374B"></path>
                            <polygon id="Inner_wear" fill="#E6E6E6" points="8.57142857 18.5714286 10 20 11.4285714 18.5714286"></polygon>
                            <path d="M15,17.8571429 L12.1428571,17.8571429 L10,20 L7.85714286,17.8571429 L5,17.8571429 C3.85714286,17.8571429 2.92857143,18.5 2.5,19.4285714 C4.28571429,21.5 7,22.8571429 10,22.8571429 C13,22.8571429 15.7142857,21.5 17.5,19.4285714 C17.0714286,18.5 16.1428571,17.8571429 15,17.8571429 Z" id="Dress" fill="#FF4081"></path>
                        </g>
                    </g>
                </g>
            </g>
        </g>
    </g>
</svg>